<svg width="36" height="36" viewBox="0 0 36 36" fill="none" xmlns="http://www.w3.org/2000/svg">
<path d="M18 4.75C21.2209 4.75 24.1817 5.43061 26.3281 6.50391C28.4924 7.58621 29.75 9.02257 29.75 10.5V25.5C29.75 26.9774 28.4924 28.4138 26.3281 29.4961C24.1817 30.5694 21.2209 31.25 18 31.25C14.7791 31.25 11.8183 30.5694 9.67188 29.4961C7.50757 28.4138 6.25 26.9774 6.25 25.5V10.5C6.25 9.02257 7.50757 7.58621 9.67188 6.50391C11.8183 5.43061 14.7791 4.75 18 4.75ZM26.876 21.6934C24.7029 22.9379 21.5106 23.75 18 23.75C14.4894 23.75 11.2971 22.9379 9.12402 21.6934L8.75 21.4795V25.5176L8.75195 25.5342C8.77491 25.6982 8.87731 25.8596 8.99902 26.0029C9.12679 26.1534 9.30302 26.3144 9.52051 26.4795C9.95622 26.8103 10.5771 27.1728 11.3643 27.5078C12.9402 28.1785 15.1981 28.75 18 28.75C20.8019 28.75 23.0597 28.1778 24.6357 27.5059C25.4229 27.1702 26.0447 26.8078 26.4805 26.4756C26.6979 26.3098 26.8742 26.1475 27.002 25.9961C27.1238 25.8517 27.2253 25.69 27.248 25.5254L27.25 25.5078V21.4795L26.876 21.6934ZM26.876 14.1934C24.7029 15.4379 21.5106 16.25 18 16.25C14.4894 16.25 11.2971 15.4379 9.12402 14.1934L8.75 13.9795V18.0176L8.75195 18.0342C8.77491 18.1982 8.87731 18.3596 8.99902 18.5029C9.12679 18.6534 9.30302 18.8144 9.52051 18.9795C9.95622 19.3103 10.5771 19.6728 11.3643 20.0078C12.9402 20.6785 15.1981 21.25 18 21.25C20.8019 21.25 23.0597 20.6778 24.6357 20.0059C25.4229 19.6702 26.0447 19.3078 26.4805 18.9756C26.6979 18.8098 26.8742 18.6475 27.002 18.4961C27.1238 18.3517 27.2253 18.19 27.248 18.0254L27.25 18.0078V13.9795L26.876 14.1934ZM18 7.25C15.1981 7.25 12.9403 7.82223 11.3643 8.49414C10.5771 8.82975 9.95532 9.1922 9.51953 9.52441C9.30208 9.69021 9.12579 9.8525 8.99805 10.0039C8.87624 10.1483 8.77474 10.31 8.75195 10.4746L8.74805 10.5098L8.75293 10.5439C8.77607 10.7072 8.87759 10.8677 8.99902 11.0098C9.12677 11.1592 9.30306 11.3199 9.52051 11.4844C9.95616 11.8138 10.5781 12.1744 11.3652 12.5088C12.941 13.1783 15.1983 13.75 18 13.75C20.8019 13.75 23.0597 13.1778 24.6357 12.5059C25.4229 12.1702 26.0447 11.8078 26.4805 11.4756C26.6979 11.3098 26.8742 11.1475 27.002 10.9961C27.1238 10.8517 27.2253 10.69 27.248 10.5254L27.252 10.4902L27.2471 10.4561C27.2239 10.2928 27.1224 10.1323 27.001 9.99023C26.8732 9.84079 26.6969 9.68007 26.4795 9.51562C26.0438 9.1862 25.4219 8.82563 24.6348 8.49121C23.059 7.82175 20.8017 7.25 18 7.25Z" fill="#2272EB" stroke="white" stroke-width="0.5"/>
</svg>
