<svg width="36" height="36" viewBox="0 0 36 36" fill="none" xmlns="http://www.w3.org/2000/svg">
<path d="M19.2504 24.25V26.75H16.7504V24.25H19.2504ZM18.0004 9.25C21.1157 9.2502 23.6512 11.7862 23.6498 14.9014C23.6496 17.1639 21.9855 18.5233 20.8051 19.4795C20.5159 19.7126 20.2203 19.9472 19.9838 20.1836C19.3194 20.8463 19.2538 21.4645 19.2494 21.5352L19.2484 21.543V21.5508L19.2494 22.25H16.7504V21.499C16.7504 21.355 16.7866 19.8442 18.2172 18.415C18.4989 18.1334 18.8493 17.8453 19.2338 17.5332C19.7825 17.0898 20.2585 16.6899 20.5951 16.2812C20.9367 15.8665 21.1507 15.4256 21.1508 14.9014C21.1508 13.1628 19.7372 11.7502 18.0004 11.75C16.3473 11.75 14.9874 13.0292 14.8597 14.6514H12.3558C12.487 11.6513 14.9686 9.25 18.0004 9.25Z" fill="#2272EB" stroke="white" stroke-width="0.5"/>
<path d="M18 3.25C26.1329 3.25 32.75 9.86707 32.75 18C32.75 26.1329 26.1329 32.75 18 32.75C9.86707 32.75 3.25 26.1329 3.25 18C3.25 9.86707 9.86707 3.25 18 3.25ZM18 5.75C11.2454 5.75 5.75 11.2454 5.75 18C5.75 24.7546 11.2454 30.25 18 30.25C24.7546 30.25 30.25 24.7546 30.25 18C30.25 11.2454 24.7546 5.75 18 5.75Z" fill="#2272EB" stroke="white" stroke-width="0.5"/>
</svg>
