<svg width="36" height="36" viewBox="0 0 36 36" fill="none" xmlns="http://www.w3.org/2000/svg">
<path d="M25.5 10.75C29.4974 10.75 32.75 14.0026 32.75 18C32.75 21.9974 29.4974 25.25 25.5 25.25C22.4929 25.25 20.2858 22.9986 18.1943 20.3193L17.9971 20.0674L17.7998 20.3193C15.7084 22.9942 13.502 25.2428 10.502 25.25H10.4854L10.124 25.2412C8.32529 25.1533 6.64751 24.409 5.36523 23.124C4.00212 21.7534 3.25 19.9345 3.25 18C3.25 14.0026 6.50257 10.75 10.5 10.75C13.5057 10.75 15.7119 12.9981 17.8018 15.6729L17.998 15.9248L18.1953 15.6729C20.2852 12.9982 22.4928 10.75 25.5 10.75ZM10.5 13.25C7.88093 13.25 5.75 15.3809 5.75 18C5.75 19.2674 6.24252 20.4619 7.13672 21.3594C7.9706 22.1962 9.06409 22.6815 10.2354 22.7422V24L10.7354 24.002L10.7451 22.7383C11.7409 22.6551 12.677 22.0938 13.5547 21.3105C14.5076 20.4602 15.4263 19.3178 16.3174 18.1484L16.4336 17.9971L16.3184 17.8457C15.4286 16.6754 14.5094 15.5339 13.5566 14.6846C12.6068 13.8378 11.5888 13.25 10.5 13.25ZM25.5 13.25C24.4097 13.25 23.3909 13.8377 22.4404 14.6846C21.4871 15.5339 20.5682 16.6755 19.6777 17.8457L19.5625 17.9971L19.6777 18.1484C20.5689 19.3202 21.489 20.4631 22.4424 21.3135C23.3929 22.1613 24.4111 22.75 25.5 22.75C28.1191 22.75 30.25 20.6191 30.25 18C30.25 15.3809 28.1191 13.25 25.5 13.25Z" fill="#2272EB" stroke="white" stroke-width="0.5"/>
</svg>
