<svg width="36" height="36" viewBox="0 0 36 36" fill="none" xmlns="http://www.w3.org/2000/svg">
<path d="M18 15.25C20.3683 15.25 22.25 17.1345 22.25 19.5C22.25 21.8655 20.3683 23.75 18 23.75C15.6317 23.75 13.75 21.8655 13.75 19.5C13.75 17.1345 15.6317 15.25 18 15.25Z" fill="#2272EB" stroke="white" stroke-width="0.5"/>
<path d="M17.7129 6.25391L17.9629 6.25293C18.761 6.25035 19.5589 6.31634 20.3369 6.4541L20.6689 6.51758C21.4231 6.67356 22.1576 6.89132 22.8594 7.16895L23.1582 7.29199C23.9384 7.62319 24.6966 8.0322 25.4072 8.51172V8.5127C26.113 8.99153 26.7748 9.53651 27.3691 10.1338H27.3701C27.9658 10.7265 28.5083 11.3847 28.9854 12.0898C29.4656 12.8043 29.8769 13.5617 30.208 14.3447C30.5015 15.0361 30.7373 15.7628 30.9102 16.5088L30.9805 16.8291C31.1586 17.7022 31.25 18.6004 31.25 19.5C31.25 20.3996 31.1585 21.2977 30.9805 22.166C30.8037 23.0262 30.5449 23.8628 30.208 24.6572C29.8769 25.4371 29.4665 26.1953 28.9883 26.9062C28.5078 27.6122 27.9642 28.2721 27.3682 28.8682H27.3672C26.7712 29.4671 26.1117 30.0114 25.4082 30.4854V30.4863C24.705 30.963 23.946 31.3737 23.1553 31.708C22.3655 32.0433 21.5289 32.3022 20.6699 32.4805C19.7972 32.6585 18.8993 32.75 18 32.75C17.1003 32.75 16.2019 32.6591 15.3301 32.4824H15.3311C14.4691 32.3041 13.633 32.0448 12.8418 31.708H12.8408C12.0533 31.3753 11.2954 30.9644 10.5908 30.4863V30.4854L10.3291 30.3047C9.81075 29.9362 9.31797 29.5287 8.8584 29.0898L8.63086 28.8682L8.41016 28.6416C7.9729 28.1829 7.56665 27.6904 7.19727 27.1719L7.01562 26.9111C6.53405 26.1969 6.12312 25.4401 5.79199 24.6572C5.49841 23.9632 5.26268 23.2361 5.08984 22.4912L5.01953 22.1709C4.8579 21.3787 4.76825 20.5659 4.75293 19.75H7.25586C7.26652 20.2151 7.30424 20.6783 7.37402 21.1348L7.46973 21.6699C7.5778 22.1896 7.72239 22.7017 7.90332 23.1963L8.09668 23.6855C8.36546 24.3213 8.69804 24.9356 9.08789 25.5127H9.08887C9.47435 26.0824 9.91808 26.6177 10.4014 27.1025V27.1035C10.8864 27.5885 11.4212 28.0309 11.9912 28.415C12.4217 28.7051 12.8741 28.9646 13.3428 29.1904L13.8164 29.4053C14.459 29.6789 15.1377 29.889 15.834 30.0332H15.835C17.2421 30.322 18.7551 30.3219 20.168 30.0332H20.1689C20.864 29.889 21.5416 29.6783 22.1826 29.4062L22.1816 29.4053C22.6631 29.2014 23.1288 28.9644 23.5723 28.6953L24.0078 28.416C24.5805 28.0306 25.1148 27.5899 25.5986 27.1045C26.0835 26.6181 26.5276 26.0824 26.916 25.5098V25.5088C27.3027 24.9334 27.6365 24.3197 27.9053 23.6855C28.179 23.0411 28.3881 22.3622 28.5322 21.666V21.665C28.6766 20.9613 28.75 20.232 28.75 19.5C28.75 18.9508 28.7086 18.4032 28.627 17.8662L28.5322 17.333L28.4111 16.8154C28.3229 16.4733 28.2193 16.1359 28.0986 15.8066L27.9053 15.3193C27.6364 14.6819 27.303 14.0675 26.9131 13.4902H26.9121C26.5281 12.919 26.0849 12.3832 25.6016 11.9014H25.6025C25.2385 11.5362 24.8457 11.1961 24.4307 10.8857L24.0078 10.585C23.4325 10.1984 22.8176 9.86322 22.1826 9.5957H22.1816C21.5396 9.32247 20.8617 9.11183 20.166 8.96777H20.165C19.447 8.8202 18.704 8.74989 17.9619 8.75293L17.7129 8.75391V11.498L12.4141 7.5L17.7129 3.50098V6.25391Z" fill="#2272EB" stroke="white" stroke-width="0.5"/>
</svg>
