<svg width="36" height="36" viewBox="0 0 36 36" fill="none" xmlns="http://www.w3.org/2000/svg">
<path d="M6 19.75H30C31.5164 19.75 32.75 20.9836 32.75 22.5V28.5C32.75 30.0164 31.5164 31.25 30 31.25H6C4.48357 31.25 3.25 30.0164 3.25 28.5V22.5C3.25 20.9836 4.48357 19.75 6 19.75ZM5.75 28.75H30.2529V28.5L30.25 22.5V22.25H5.75V28.75ZM6 4.75H30C31.5164 4.75 32.75 5.98357 32.75 7.5V13.5C32.75 15.0164 31.5164 16.25 30 16.25H6C4.48357 16.25 3.25 15.0164 3.25 13.5V7.5C3.25 5.98357 4.48357 4.75 6 4.75ZM5.75 13.75H30.2529V13.5L30.25 7.5V7.25H5.75V13.75Z" fill="#2272EB" stroke="white" stroke-width="0.5"/>
<path d="M28.25 24.25V26.75H25.75V24.25H28.25ZM23.75 24.25V26.75H21.25V24.25H23.75ZM28.25 9.25V11.75H25.75V9.25H28.25ZM23.75 9.25V11.75H21.25V9.25H23.75Z" fill="#2272EB" stroke="white" stroke-width="0.5"/>
</svg>
