<svg width="36" height="36" viewBox="0 0 36 36" fill="none" xmlns="http://www.w3.org/2000/svg">
<path d="M17.4814 3.38013C17.8349 3.2047 18.2491 3.20429 18.5986 3.38208H18.6006L30.5596 9.38208L30.5605 9.38306C30.945 9.57548 31.2018 9.95098 31.2432 10.3782C31.2982 10.9484 32.478 24.7765 18.6553 32.5872L18.6543 32.5881C18.4654 32.6962 18.2529 32.7502 18.04 32.7502C17.8346 32.7502 17.629 32.6994 17.4453 32.5989H17.4443C10.2471 28.6852 7.07665 23.1524 5.70312 18.5823C5.01577 16.2952 4.77828 14.2478 4.71387 12.7639C4.68168 12.0221 4.69231 11.4214 4.71191 11.0032C4.72171 10.7941 4.73347 10.6306 4.74316 10.5178C4.74799 10.4617 4.75269 10.4182 4.75586 10.3879C4.75745 10.3728 4.75881 10.3601 4.75977 10.3518C4.76056 10.3449 4.76158 10.3412 4.76172 10.3401V10.3381C4.81403 9.92713 5.06881 9.56742 5.44043 9.37915L5.44141 9.38013L17.4814 3.38013ZM28.7852 11.2903L28.6484 11.2219L18.1514 5.95532L18.0391 5.89868L17.9277 5.95435L7.32129 11.2395L7.18848 11.3049L7.18262 11.4524C7.06546 14.2717 7.49366 23.9032 17.9004 29.9866L18.0293 30.0618L18.1572 29.9836C28.0557 23.9549 28.7937 14.2832 28.7861 11.4446L28.7852 11.2903Z" fill="#2272EB" stroke="white" stroke-width="0.5"/>
</svg>
