<svg width="14" height="14" viewBox="0 0 14 14" fill="none" xmlns="http://www.w3.org/2000/svg">
<path d="M7.00001 1.16663C3.78351 1.16663 1.16667 3.78346 1.16667 6.99996C1.16667 10.2165 3.78351 12.8333 7.00001 12.8333C10.2165 12.8333 12.8333 10.2165 12.8333 6.99996C12.8333 3.78346 10.2165 1.16663 7.00001 1.16663ZM7.00001 11.6666C4.42692 11.6666 2.33334 9.57304 2.33334 6.99996C2.33334 4.42688 4.42692 2.33329 7.00001 2.33329C9.57309 2.33329 11.6667 4.42688 11.6667 6.99996C11.6667 9.57304 9.57309 11.6666 7.00001 11.6666Z" fill="#6E6E6E"/>
<path d="M7.58334 4.08337H6.41667V7.58337H9.91667V6.41671H7.58334V4.08337Z" fill="#6E6E6E"/>
</svg>
