<svg width="24" height="24" viewBox="0 0 24 24" fill="none" xmlns="http://www.w3.org/2000/svg">
<path d="M11.454 17.0209C11.502 17.0619 11.554 17.1029 11.605 17.1429C10.624 17.7929 9.44799 18.1729 8.18499 18.1729C4.77399 18.1749 2.00999 15.4119 2.00999 11.9999C2.00999 8.59093 4.77499 5.82593 8.18399 5.82593C9.44799 5.82593 10.624 6.20493 11.602 6.85593C11.552 6.89893 11.502 6.93793 11.464 6.98193C10.003 8.24493 9.16599 10.0759 9.16599 11.9999C9.16599 13.9249 9.99899 15.7549 11.454 17.0209ZM15.815 5.82593C14.551 5.82593 13.376 6.20493 12.399 6.85593C12.448 6.89893 12.498 6.93793 12.536 6.98193C13.998 8.24493 14.835 10.0759 14.835 11.9999C14.835 13.9239 14 15.7529 12.547 17.0209C12.498 17.0619 12.446 17.1029 12.396 17.1429C13.375 17.7929 14.551 18.1729 15.814 18.1729C19.227 18.1739 21.99 15.4109 21.99 11.9989C21.99 8.59293 19.228 5.82593 15.815 5.82593ZM12 7.14993C11.921 7.21293 11.843 7.27593 11.767 7.34193C10.465 8.47393 9.64399 10.1399 9.64399 11.9999C9.64399 13.8619 10.465 15.5279 11.767 16.6589C11.843 16.7249 11.921 16.7899 12 16.8529C12.08 16.7899 12.157 16.7249 12.233 16.6589C13.533 15.5279 14.357 13.8619 14.357 11.9999C14.357 10.1399 13.535 8.47393 12.233 7.34293C12.158 7.27593 12.08 7.21293 12 7.14993Z" fill="white"/>
</svg>
