<svg width="24" height="24" viewBox="0 0 24 24" fill="none" xmlns="http://www.w3.org/2000/svg">
<path d="M16.539 9.18606C16.217 9.06406 15.713 8.93506 15.088 8.93506C13.488 8.93506 12.358 9.74106 12.35 10.8981C12.34 11.7481 13.153 12.2271 13.768 12.5111C14.399 12.8031 14.61 12.9871 14.608 13.2481C14.604 13.6451 14.104 13.8251 13.639 13.8251C13 13.8251 12.651 13.7361 12.114 13.5131L11.915 13.4201L11.688 14.7521C12.077 14.9141 12.778 15.0531 13.502 15.0651C15.203 15.0651 16.315 14.2641 16.328 13.0331C16.342 12.3541 15.902 11.8411 14.976 11.4171C14.413 11.1421 14.064 10.9581 14.064 10.6791C14.064 10.4321 14.363 10.1681 14.988 10.1681C15.527 10.1601 15.902 10.2761 16.201 10.3971L16.351 10.4641L16.578 9.17706L16.539 9.18606ZM20.691 9.04306H19.441C19.052 9.04306 18.759 9.15006 18.589 9.53606L16.185 14.9821H17.886L18.226 14.0891L20.302 14.0911C20.351 14.3001 20.501 14.9821 20.501 14.9821H22.001L20.691 9.04306ZM10.049 8.99306H11.67L10.656 14.9351H9.037L10.049 8.99106V8.99306ZM5.934 12.2681L6.102 13.0931L7.686 9.04306H9.403L6.852 14.9741H5.139L3.739 9.95206C3.709 9.86506 3.674 9.80706 3.59 9.75306C3.115 9.50606 2.586 9.30506 1.998 9.16406L2.02 9.03906H4.629C4.983 9.05306 5.268 9.16406 5.363 9.54206L5.933 12.2711V12.2681H5.934ZM18.691 12.8741L19.337 11.2121C19.329 11.2301 19.47 10.8691 19.552 10.6461L19.663 11.1591L20.038 12.8731H18.69V12.8741H18.691Z" fill="white"/>
</svg>
